<svg width="24" height="24" viewBox="0 0 32 32" fill="none" xmlns="http://www.w3.org/2000/svg">
<path d="M4.00033 24L9.77077 18.2295C10.5523 17.448 10.9431 17.0572 11.3946 16.9083C11.7919 16.7773 12.2202 16.7741 12.6194 16.8992C13.0731 17.0415 13.4696 17.4264 14.2626 18.1963L19.3152 23.1018M28.667 23.5833L26.0131 20.9294C25.221 20.1373 24.825 19.7413 24.3684 19.5929C23.9667 19.4624 23.534 19.4624 23.1323 19.5929C22.6756 19.7413 22.2796 20.1374 21.4875 20.9295C20.3417 22.0753 19.3152 23.1018 19.3152 23.1018M24.667 28.4537L19.3152 23.1018M24.0003 10.6666C24.0003 12.1394 22.8064 13.3333 21.3337 13.3333C19.8609 13.3333 18.667 12.1394 18.667 10.6666C18.667 9.19387 19.8609 7.99996 21.3337 7.99996C22.8064 7.99996 24.0003 9.19387 24.0003 10.6666ZM12.267 29.3333H19.7337C23.094 29.3333 24.7741 29.3333 26.0576 28.6793C27.1866 28.1041 28.1045 27.1862 28.6797 26.0572C29.3337 24.7738 29.3337 23.0936 29.3337 19.7333V12.2666C29.3337 8.90631 29.3337 7.22615 28.6797 5.94268C28.1045 4.81371 27.1866 3.89583 26.0576 3.32059C24.7741 2.66663 23.094 2.66663 19.7337 2.66663H12.267C8.90668 2.66663 7.22652 2.66663 5.94305 3.32059C4.81408 3.89583 3.89619 4.81371 3.32095 5.94268C2.66699 7.22615 2.66699 8.90631 2.66699 12.2666V19.7333C2.66699 23.0936 2.66699 24.7738 3.32095 26.0572C3.89619 27.1862 4.81408 28.1041 5.94305 28.6793C7.22652 29.3333 8.90667 29.3333 12.267 29.3333Z" stroke="#2F384C" stroke-linecap="round" stroke-linejoin="round"/>
</svg>
