<svg width="24" height="24" viewBox="0 0 24 24" fill="none" xmlns="http://www.w3.org/2000/svg">
<mask id="mask0_4_1820" style="mask-type:alpha" maskUnits="userSpaceOnUse" x="3" y="2" width="18" height="20">
<path fill-rule="evenodd" clip-rule="evenodd" d="M15 6V9H9V6C9 4.34315 10.3431 3 12 3C13.6569 3 15 4.34315 15 6ZM8 9V6C8 3.79086 9.79086 2 12 2C14.2091 2 16 3.79086 16 6V9H18C19.6569 9 21 10.3431 21 12V19C21 20.6569 19.6569 22 18 22H6C4.34315 22 3 20.6569 3 19V12C3 10.3431 4.34315 9 6 9H8ZM16 10H15H9H8H6C4.89543 10 4 10.8954 4 12V19C4 20.1046 4.89543 21 6 21H18C19.1046 21 20 20.1046 20 19V12C20 10.8954 19.1046 10 18 10H16ZM11 14C11 14.5523 11.4477 15 12 15C12.5523 15 13 14.5523 13 14C13 13.4477 12.5523 13 12 13C11.4477 13 11 13.4477 11 14ZM12 12C10.8954 12 10 12.8954 10 14C10 14.9333 10.6393 15.7173 11.5038 15.938C11.5013 15.9583 11.5 15.979 11.5 16V18C11.5 18.2761 11.7239 18.5 12 18.5C12.2761 18.5 12.5 18.2761 12.5 18V16C12.5 15.979 12.4987 15.9583 12.4962 15.938C13.3607 15.7173 14 14.9333 14 14C14 12.8954 13.1046 12 12 12Z" fill="black"/>
</mask>
<g mask="url(#mask0_4_1820)">
<rect width="24" height="24" fill="#8E9AAF"/>
</g>
</svg>
