<svg width="24" height="24" viewBox="0 0 24 24" fill="none" xmlns="http://www.w3.org/2000/svg">
<mask id="mask0_4_1866" style="mask-type:alpha" maskUnits="userSpaceOnUse" x="4" y="4" width="16" height="16">
<path fill-rule="evenodd" clip-rule="evenodd" d="M13 5H6C5.44772 5 5 5.44772 5 6V18C5 18.5523 5.44772 19 6 19H13C13.5523 19 14 18.5523 14 18V17.5C14 17.2239 14.2239 17 14.5 17C14.7761 17 15 17.2239 15 17.5V18C15 19.1046 14.1046 20 13 20H6C4.89543 20 4 19.1046 4 18V6C4 4.89543 4.89543 4 6 4H13C14.1046 4 15 4.89543 15 6V9.5C15 9.77614 14.7761 10 14.5 10C14.2239 10 14 9.77614 14 9.5V6C14 5.44772 13.5523 5 13 5ZM16.1159 10.6799C16.2927 10.4678 16.608 10.4391 16.8201 10.6159L19.8918 13.1893C19.9856 13.3075 20.0175 13.4557 19.9911 13.5939C19.9723 13.6926 19.9239 13.7861 19.8471 13.86C19.8374 13.8692 19.8275 13.8781 19.8172 13.8865L16.8201 16.3841C16.608 16.5609 16.2927 16.5322 16.1159 16.3201C15.9391 16.1079 15.9678 15.7927 16.1799 15.6159L18.119 14H9.5C9.22386 14 9 13.7762 9 13.5C9 13.2239 9.22386 13 9.5 13H18.119L16.1799 11.3841C15.9678 11.2073 15.9391 10.8921 16.1159 10.6799ZM16.8201 10.6159L19.8839 13.1797C19.8618 13.1531 19.8375 13.1294 19.8114 13.1087L16.8201 10.6159Z" fill="black"/>
</mask>
<g mask="url(#mask0_4_1866)">
<rect width="24" height="24" fill="#8E9AAF"/>
</g>
</svg>
