<svg width="32" height="32" viewBox="0 0 32 32" fill="none" xmlns="http://www.w3.org/2000/svg">
<path fill-rule="evenodd" clip-rule="evenodd" d="M6.64645 4.64645C6.74022 4.55268 6.86739 4.5 7 4.5H18.5V11C18.5 11.2761 18.7239 11.5 19 11.5H25.5V27C25.5 27.1326 25.4473 27.2598 25.3536 27.3536C25.2598 27.4473 25.1326 27.5 25 27.5H7C6.86739 27.5 6.74021 27.4473 6.64645 27.3536C6.55268 27.2598 6.5 27.1326 6.5 27V5C6.5 4.86739 6.55268 4.74022 6.64645 4.64645ZM24.7929 10.5L19.5 5.20711V10.5H24.7929ZM7 3.5C6.60217 3.5 6.22064 3.65804 5.93934 3.93934C5.65804 4.22064 5.5 4.60217 5.5 5V27C5.5 27.3978 5.65804 27.7794 5.93934 28.0607C6.22065 28.342 6.60218 28.5 7 28.5H25C25.3978 28.5 25.7794 28.342 26.0607 28.0607C26.342 27.7794 26.5 27.3978 26.5 27V11C26.5 10.8674 26.4473 10.7402 26.3536 10.6464L19.3536 3.64645C19.2598 3.55268 19.1326 3.5 19 3.5H7ZM11.5 17C11.5 16.7239 11.7239 16.5 12 16.5H20C20.2761 16.5 20.5 16.7239 20.5 17C20.5 17.2761 20.2761 17.5 20 17.5H12C11.7239 17.5 11.5 17.2761 11.5 17ZM12 20.5C11.7239 20.5 11.5 20.7239 11.5 21C11.5 21.2761 11.7239 21.5 12 21.5H20C20.2761 21.5 20.5 21.2761 20.5 21C20.5 20.7239 20.2761 20.5 20 20.5H12Z" fill="#293241"/>
</svg>
